<svg width="67" height="67" viewBox="0 0 67 67" fill="none" xmlns="http://www.w3.org/2000/svg">
<g id="ic:round-repeat">
<path id="Vector" d="M19.5416 19.5416H47.4583V24.5387C47.4583 25.7949 48.9658 26.4091 49.8312 25.5157L57.6199 17.727C58.1783 17.1687 58.1783 16.3032 57.6199 15.7449L49.8312 7.95616C49.6344 7.76325 49.3849 7.63291 49.1141 7.58157C48.8434 7.53023 48.5635 7.56018 48.3097 7.66765C48.056 7.77513 47.8397 7.95532 47.6882 8.18551C47.5366 8.41569 47.4566 8.68558 47.4583 8.96116V13.9582H16.7499C15.2145 13.9582 13.9583 15.2145 13.9583 16.7499V27.9166C13.9583 29.452 15.2145 30.7082 16.7499 30.7082C18.2853 30.7082 19.5416 29.452 19.5416 27.9166V19.5416ZM47.4583 47.4582H19.5416V42.4612C19.5416 41.2049 18.0341 40.5907 17.1687 41.4841L9.37993 49.2728C8.8216 49.8312 8.8216 50.6966 9.37993 51.2549L17.1687 59.0437C17.3655 59.2366 17.615 59.3669 17.8857 59.4183C18.1565 59.4696 18.4364 59.4396 18.6902 59.3322C18.9439 59.2247 19.1602 59.0445 19.3117 58.8143C19.4632 58.5841 19.5432 58.3142 19.5416 58.0387V53.0416H50.2499C51.7854 53.0416 53.0416 51.7853 53.0416 50.2499V39.0832C53.0416 37.5478 51.7854 36.2916 50.2499 36.2916C48.7145 36.2916 47.4583 37.5478 47.4583 39.0832V47.4582Z" fill="black"/>
</g>
</svg>
