<svg width="21" height="22" viewBox="0 0 21 22" fill="none" xmlns="http://www.w3.org/2000/svg">
<g id="ion:qr-code-outline">
<path id="Vector" d="M16.1551 14.269H13.6245C13.4498 14.269 13.3082 14.4107 13.3082 14.5854V17.1159C13.3082 17.2906 13.4498 17.4322 13.6245 17.4322H16.1551C16.3298 17.4322 16.4714 17.2906 16.4714 17.1159V14.5854C16.4714 14.4107 16.3298 14.269 16.1551 14.269Z" fill="black"/>
<path id="Vector_2" d="M12.9919 11.7385H11.094C10.9193 11.7385 10.7777 11.8801 10.7777 12.0548V13.9528C10.7777 14.1275 10.9193 14.2691 11.094 14.2691H12.9919C13.1666 14.2691 13.3083 14.1275 13.3083 13.9528V12.0548C13.3083 11.8801 13.1666 11.7385 12.9919 11.7385Z" fill="black"/>
<path id="Vector_3" d="M18.6857 17.4324H16.7878C16.6131 17.4324 16.4714 17.574 16.4714 17.7487V19.6466C16.4714 19.8213 16.6131 19.9629 16.7878 19.9629H18.6857C18.8604 19.9629 19.002 19.8213 19.002 19.6466V17.7487C19.002 17.574 18.8604 17.4324 18.6857 17.4324Z" fill="black"/>
<path id="Vector_4" d="M18.6857 11.7385H17.4204C17.2457 11.7385 17.1041 11.8801 17.1041 12.0548V13.3201C17.1041 13.4948 17.2457 13.6364 17.4204 13.6364H18.6857C18.8604 13.6364 19.002 13.4948 19.002 13.3201V12.0548C19.002 11.8801 18.8604 11.7385 18.6857 11.7385Z" fill="black"/>
<path id="Vector_5" d="M12.3593 18.0649H11.094C10.9193 18.0649 10.7777 18.2066 10.7777 18.3813V19.6465C10.7777 19.8212 10.9193 19.9629 11.094 19.9629H12.3593C12.534 19.9629 12.6756 19.8212 12.6756 19.6465V18.3813C12.6756 18.2066 12.534 18.0649 12.3593 18.0649Z" fill="black"/>
<path id="Vector_6" d="M16.1551 4.77954H13.6245C13.4498 4.77954 13.3082 4.92116 13.3082 5.09586V7.62642C13.3082 7.80112 13.4498 7.94274 13.6245 7.94274H16.1551C16.3298 7.94274 16.4714 7.80112 16.4714 7.62642V5.09586C16.4714 4.92116 16.3298 4.77954 16.1551 4.77954Z" fill="black"/>
<path id="Vector_7" d="M17.7368 2.88159H12.043C11.6936 2.88159 11.4104 3.16483 11.4104 3.51423V9.20799C11.4104 9.55738 11.6936 9.84063 12.043 9.84063H17.7368C18.0862 9.84063 18.3694 9.55738 18.3694 9.20799V3.51423C18.3694 3.16483 18.0862 2.88159 17.7368 2.88159Z" stroke="black" stroke-width="1.26528" stroke-linecap="round" stroke-linejoin="round"/>
<path id="Vector_8" d="M6.6656 4.77954H4.13505C3.96035 4.77954 3.81873 4.92116 3.81873 5.09586V7.62642C3.81873 7.80112 3.96035 7.94274 4.13505 7.94274H6.6656C6.8403 7.94274 6.98192 7.80112 6.98192 7.62642V5.09586C6.98192 4.92116 6.8403 4.77954 6.6656 4.77954Z" fill="black"/>
<path id="Vector_9" d="M8.24717 2.88159H2.55342C2.20402 2.88159 1.92078 3.16483 1.92078 3.51423V9.20799C1.92078 9.55738 2.20402 9.84063 2.55342 9.84063H8.24717C8.59657 9.84063 8.87981 9.55738 8.87981 9.20799V3.51423C8.87981 3.16483 8.59657 2.88159 8.24717 2.88159Z" stroke="black" stroke-width="1.26528" stroke-linecap="round" stroke-linejoin="round"/>
<path id="Vector_10" d="M6.6656 14.269H4.13505C3.96035 14.269 3.81873 14.4107 3.81873 14.5854V17.1159C3.81873 17.2906 3.96035 17.4322 4.13505 17.4322H6.6656C6.8403 17.4322 6.98192 17.2906 6.98192 17.1159V14.5854C6.98192 14.4107 6.8403 14.269 6.6656 14.269Z" fill="black"/>
<path id="Vector_11" d="M8.24717 12.3711H2.55342C2.20402 12.3711 1.92078 12.6543 1.92078 13.0037V18.6975C1.92078 19.0469 2.20402 19.3301 2.55342 19.3301H8.24717C8.59657 19.3301 8.87981 19.0469 8.87981 18.6975V13.0037C8.87981 12.6543 8.59657 12.3711 8.24717 12.3711Z" stroke="black" stroke-width="1.26528" stroke-linecap="round" stroke-linejoin="round"/>
</g>
</svg>
