<svg width="67" height="67" viewBox="0 0 67 67" fill="none" xmlns="http://www.w3.org/2000/svg">
<g id="mdi:fire">
<path id="Vector" d="M49.3008 31.2667C48.6587 30.4292 47.877 29.7033 47.1512 28.9775C45.2808 27.3025 43.1591 26.1021 41.3725 24.3433C37.2129 20.2675 36.2916 13.5396 38.9437 8.375C36.2916 9.01708 33.9745 10.4688 31.9925 12.06C24.762 17.8667 21.9145 28.1121 25.3204 36.9058C25.432 37.185 25.5437 37.4642 25.5437 37.8271C25.5437 38.4413 25.125 38.9996 24.5666 39.2229C23.9245 39.5021 23.2545 39.3346 22.7241 38.8879C22.5647 38.7561 22.4321 38.595 22.3333 38.4133C19.1787 34.4213 18.6762 28.6983 20.7979 24.12C16.1358 27.9167 13.5954 34.3375 13.9583 40.3954C14.1258 41.7913 14.2933 43.1871 14.7679 44.5829C15.1587 46.2579 15.9125 47.9329 16.75 49.4125C19.765 54.2421 24.9854 57.7038 30.5966 58.4017C36.5708 59.1554 42.9637 58.0667 47.542 53.935C52.6508 49.3008 54.4375 41.875 51.8133 35.51L51.4504 34.7842C50.8641 33.5 49.3008 31.2667 49.3008 31.2667ZM40.4791 48.8542C39.6975 49.5242 38.4133 50.25 37.4083 50.5292C34.2816 51.6458 31.155 50.0825 29.3125 48.24C32.6345 47.4583 34.6166 45.0017 35.2029 42.5171C35.6775 40.2838 34.7841 38.4413 34.4212 36.2917C34.0862 34.2258 34.142 32.4671 34.8958 30.5408C35.4262 31.6017 35.9845 32.6625 36.6545 33.5C38.8041 36.2917 42.182 37.52 42.9079 41.3167C43.0195 41.7075 43.0754 42.0983 43.0754 42.5171C43.1591 44.8063 42.1541 47.3188 40.4791 48.8542Z" fill="black"/>
</g>
</svg>
