<svg width="86" height="86" viewBox="0 0 86 86" fill="none" xmlns="http://www.w3.org/2000/svg">
<g id="ph:clock">
<path id="Vector" d="M43 8.0625C36.09 8.0625 29.3352 10.1115 23.5898 13.9505C17.8443 17.7895 13.3663 23.246 10.722 29.63C8.07764 36.014 7.38576 43.0388 8.73383 49.816C10.0819 56.5932 13.4094 62.8184 18.2955 67.7045C23.1816 72.5906 29.4068 75.9181 36.184 77.2662C42.9613 78.6143 49.986 77.9224 56.37 75.278C62.754 72.6337 68.2105 68.1557 72.0495 62.4102C75.8885 56.6648 77.9375 49.91 77.9375 43C77.9277 33.737 74.2437 24.8562 67.6938 18.3063C61.1438 11.7563 52.263 8.07228 43 8.0625ZM43 72.5625C37.1531 72.5625 31.4375 70.8287 26.576 67.5803C21.7144 64.332 17.9253 59.7149 15.6878 54.3131C13.4503 48.9112 12.8649 42.9672 14.0056 37.2326C15.1462 31.4981 17.9618 26.2305 22.0962 22.0962C26.2306 17.9618 31.4981 15.1462 37.2327 14.0055C42.9672 12.8649 48.9113 13.4503 54.3131 15.6878C59.7149 17.9253 64.332 21.7144 67.5803 26.576C70.8287 31.4375 72.5625 37.1531 72.5625 43C72.5536 50.8377 69.4362 58.3519 63.894 63.894C58.3519 69.4361 50.8377 72.5536 43 72.5625ZM64.5 43C64.5 43.7128 64.2169 44.3963 63.7129 44.9004C63.2089 45.4044 62.5253 45.6875 61.8125 45.6875H43C42.2872 45.6875 41.6037 45.4044 41.0997 44.9004C40.5957 44.3963 40.3125 43.7128 40.3125 43V24.1875C40.3125 23.4747 40.5957 22.7912 41.0997 22.2872C41.6037 21.7831 42.2872 21.5 43 21.5C43.7128 21.5 44.3964 21.7831 44.9004 22.2872C45.4044 22.7912 45.6875 23.4747 45.6875 24.1875V40.3125H61.8125C62.5253 40.3125 63.2089 40.5956 63.7129 41.0997C64.2169 41.6037 64.5 42.2872 64.5 43Z" fill="white"/>
</g>
</svg>
