<svg width="67" height="67" viewBox="0 0 67 67" fill="none" xmlns="http://www.w3.org/2000/svg">
<g id="solar:dollar-bold-duotone">
<g id="Group">
<path id="Vector" opacity="0.5" fill-rule="evenodd" clip-rule="evenodd" d="M61.4166 33.5002C61.4166 48.9185 48.9183 61.4168 33.4999 61.4168C18.0815 61.4168 5.58325 48.9185 5.58325 33.5002C5.58325 18.0818 18.0815 5.5835 33.4999 5.5835C48.9183 5.5835 61.4166 18.0818 61.4166 33.5002Z" fill="black"/>
<path id="Vector_2" fill-rule="evenodd" clip-rule="evenodd" d="M33.5 14.6562C34.0553 14.6563 34.5878 14.8768 34.9805 15.2695C35.3732 15.6621 35.5938 16.1947 35.5938 16.75V17.635C40.1442 18.4501 43.9688 21.8699 43.9688 26.5208C43.9688 27.0761 43.7482 27.6087 43.3555 28.0013C42.9629 28.394 42.4303 28.6146 41.875 28.6146C41.3197 28.6146 40.7872 28.394 40.3945 28.0013C40.0018 27.6087 39.7812 27.0761 39.7812 26.5208C39.7812 24.6281 38.2068 22.6209 35.5938 21.9062V31.5933C40.1442 32.4085 43.9688 35.8283 43.9688 40.4792C43.9688 45.1301 40.1442 48.5499 35.5938 49.365V50.25C35.5938 50.8053 35.3732 51.3379 34.9805 51.7305C34.5878 52.1232 34.0553 52.3438 33.5 52.3438C32.9447 52.3438 32.4122 52.1232 32.0195 51.7305C31.6268 51.3379 31.4062 50.8053 31.4062 50.25V49.365C26.8558 48.5499 23.0312 45.1301 23.0312 40.4792C23.0312 39.9239 23.2518 39.3913 23.6445 38.9987C24.0372 38.606 24.5697 38.3854 25.125 38.3854C25.6803 38.3854 26.2128 38.606 26.6055 38.9987C26.9982 39.3913 27.2188 39.9239 27.2188 40.4792C27.2188 42.3719 28.7933 44.3791 31.4062 45.091V35.4067C26.8558 34.5915 23.0312 31.1718 23.0312 26.5208C23.0312 21.8699 26.8558 18.4501 31.4062 17.635V16.75C31.4062 16.1947 31.6268 15.6621 32.0195 15.2695C32.4122 14.8768 32.9447 14.6563 33.5 14.6562ZM31.4062 21.9062C28.7933 22.6209 27.2188 24.6281 27.2188 26.5208C27.2188 28.4136 28.7933 30.4208 31.4062 31.1327V21.9062ZM39.7812 40.4792C39.7812 38.5864 38.2068 36.5792 35.5938 35.8673V45.091C38.2068 44.3791 39.7812 42.3719 39.7812 40.4792Z" fill="black"/>
</g>
</g>
</svg>
